<svg xmlns="http://www.w3.org/2000/svg" xmlns:xlink="http://www.w3.org/1999/xlink" width="500" zoomAndPan="magnify" viewBox="0 0 375 374.999991" height="500" preserveAspectRatio="xMidYMid meet" version="1.0"><defs><g/></defs><g fill="#d9d9d9" fill-opacity="1"><g transform="translate(111.018125, 230.636974)"><g><path d="M 96.984375 -31.328125 L 90.71875 -31.328125 L 90.71875 -6.265625 C 87.050781 -4.179688 81.6875 -2.320312 74.625 -0.6875 C 67.5625 0.9375 59.9375 1.75 51.75 1.75 C 36.132812 1.75 23.894531 -2.363281 15.03125 -10.59375 C 6.175781 -18.820312 1.75 -31.539062 1.75 -48.75 C 1.75 -66.375 6.15625 -79.195312 14.96875 -87.21875 C 23.789062 -95.238281 36.382812 -99.25 52.75 -99.25 C 60.6875 -99.25 68.125 -98.410156 75.0625 -96.734375 C 82 -95.066406 87.21875 -93.191406 90.71875 -91.109375 L 90.71875 -61.15625 L 59.390625 -61.15625 L 59.390625 -67.046875 C 59.390625 -70.554688 58.660156 -73.082031 57.203125 -74.625 C 55.742188 -76.164062 53.425781 -76.9375 50.25 -76.9375 C 47.070312 -76.9375 44.753906 -76.164062 43.296875 -74.625 C 41.835938 -73.082031 41.109375 -70.554688 41.109375 -67.046875 L 41.109375 -30.453125 C 41.109375 -26.941406 41.835938 -24.410156 43.296875 -22.859375 C 44.753906 -21.316406 47.070312 -20.546875 50.25 -20.546875 C 53.425781 -20.546875 55.742188 -21.316406 57.203125 -22.859375 C 58.660156 -24.410156 59.390625 -26.941406 59.390625 -30.453125 L 59.390625 -31.328125 L 52.625 -31.328125 L 52.625 -50 L 96.984375 -50 Z M 96.984375 -31.328125 "/></g></g></g><path stroke-linecap="butt" transform="matrix(0.75, 0, 0, 0.75, 166.626966, 99.777737)" fill="none" stroke-linejoin="miter" d="M 89.007802 177.327612 C 67.960925 177.327612 51.726549 171.983861 40.304674 161.291152 C 28.877589 150.603652 23.169256 133.515109 23.169256 110.015107 C 23.169256 65.114063 45.007799 42.666145 88.684885 42.666145 C 99.263011 42.666145 109.091136 43.942186 118.17447 46.499478 C 127.257804 49.05677 134.033846 51.90052 138.49218 55.02552 L 138.49218 96.796356 L 98.393219 96.796356 L 98.393219 84.765106 C 98.393219 80.551564 97.440094 77.43698 95.539052 75.421355 C 93.632802 73.410938 90.789052 72.40573 87.01301 72.40573 C 83.23176 72.40573 80.38801 73.410938 78.486968 75.421355 C 76.580718 77.43698 75.627593 80.551564 75.627593 84.765106 L 75.627593 135.228651 C 75.627593 139.468234 76.580718 142.598443 78.486968 144.60886 C 80.38801 146.593235 83.23176 147.588026 87.01301 147.588026 C 90.789052 147.588026 93.632802 146.593235 95.539052 144.60886 C 97.440094 142.598443 98.393219 139.468234 98.393219 135.228651 L 98.393219 121.681775 L 138.49218 121.681775 L 138.49218 164.963028 C 133.924471 168.093236 127.153638 170.931778 118.17447 173.48907 C 109.200511 176.046362 99.481761 177.327612 89.007802 177.327612 Z M 89.007802 177.327612 " stroke="#000000" stroke-width="12.53205" stroke-opacity="1" stroke-miterlimit="4"/><g fill="#d9d9d9" fill-opacity="1"><g transform="translate(182.259777, 231.027729)"><g><path d="M 51.125 1.75 C 35.332031 1.75 23.15625 -2.257812 14.59375 -10.28125 C 6.03125 -18.300781 1.75 -31.125 1.75 -48.75 C 1.75 -82.414062 18.125 -99.25 50.875 -99.25 C 58.8125 -99.25 66.179688 -98.285156 72.984375 -96.359375 C 79.796875 -94.441406 84.875 -92.3125 88.21875 -89.96875 L 88.21875 -58.640625 L 58.140625 -58.640625 L 58.140625 -67.671875 C 58.140625 -70.847656 57.429688 -73.1875 56.015625 -74.6875 C 54.597656 -76.1875 52.46875 -76.9375 49.625 -76.9375 C 46.78125 -76.9375 44.648438 -76.1875 43.234375 -74.6875 C 41.816406 -73.1875 41.109375 -70.847656 41.109375 -67.671875 L 41.109375 -29.828125 C 41.109375 -26.648438 41.816406 -24.304688 43.234375 -22.796875 C 44.648438 -21.296875 46.78125 -20.546875 49.625 -20.546875 C 52.46875 -20.546875 54.597656 -21.296875 56.015625 -22.796875 C 57.429688 -24.304688 58.140625 -26.648438 58.140625 -29.828125 L 58.140625 -39.96875 L 88.21875 -39.96875 L 88.21875 -7.515625 C 84.789062 -5.179688 79.710938 -3.050781 72.984375 -1.125 C 66.265625 0.789062 58.976562 1.75 51.125 1.75 Z M 51.125 1.75 "/></g></g></g><g fill="#d9d9d9" fill-opacity="1"><g transform="translate(96.200843, 258.843132)"><g><path d="M 4.859375 0.140625 C 4.023438 0.140625 3.300781 -0.046875 2.6875 -0.421875 C 2.082031 -0.804688 1.613281 -1.378906 1.28125 -2.140625 C 0.945312 -2.910156 0.78125 -3.863281 0.78125 -5 C 0.78125 -6.132812 0.976562 -7.085938 1.375 -7.859375 C 1.769531 -8.628906 2.320312 -9.203125 3.03125 -9.578125 C 3.738281 -9.953125 4.554688 -10.140625 5.484375 -10.140625 C 6.441406 -10.140625 7.253906 -9.960938 7.921875 -9.609375 C 8.597656 -9.253906 9.078125 -8.722656 9.359375 -8.015625 L 7.90625 -7.140625 L 7.734375 -7.15625 C 7.535156 -7.601562 7.25 -7.925781 6.875 -8.125 C 6.5 -8.332031 6.035156 -8.4375 5.484375 -8.4375 C 4.617188 -8.4375 3.957031 -8.160156 3.5 -7.609375 C 3.050781 -7.066406 2.828125 -6.195312 2.828125 -5 C 2.828125 -3.789062 3.039062 -2.910156 3.46875 -2.359375 C 3.894531 -1.816406 4.523438 -1.546875 5.359375 -1.546875 C 6.078125 -1.546875 6.601562 -1.707031 6.9375 -2.03125 C 7.28125 -2.351562 7.453125 -2.835938 7.453125 -3.484375 L 7.453125 -3.90625 L 5.09375 -3.90625 L 5.09375 -5.515625 L 9.421875 -5.515625 L 9.421875 0 L 7.53125 0 L 7.53125 -1.34375 L 7.390625 -1.359375 C 7.179688 -0.878906 6.867188 -0.507812 6.453125 -0.25 C 6.035156 0.0078125 5.503906 0.140625 4.859375 0.140625 Z M 4.859375 0.140625 "/></g></g></g><g fill="#d9d9d9" fill-opacity="1"><g transform="translate(108.159832, 258.843132)"><g><path d="M 1.296875 0 L 1.296875 -10 L 5.3125 -10 C 6.34375 -10 7.117188 -9.757812 7.640625 -9.28125 C 8.171875 -8.800781 8.4375 -8.144531 8.4375 -7.3125 C 8.4375 -6.707031 8.28125 -6.207031 7.96875 -5.8125 C 7.664062 -5.425781 7.210938 -5.128906 6.609375 -4.921875 L 6.609375 -4.78125 C 6.921875 -4.644531 7.171875 -4.441406 7.359375 -4.171875 C 7.554688 -3.910156 7.742188 -3.515625 7.921875 -2.984375 L 8.921875 0 L 6.890625 0 L 5.90625 -2.984375 C 5.800781 -3.285156 5.6875 -3.519531 5.5625 -3.6875 C 5.4375 -3.851562 5.273438 -3.972656 5.078125 -4.046875 C 4.890625 -4.117188 4.640625 -4.15625 4.328125 -4.15625 L 3.28125 -4.15625 L 3.28125 0 Z M 5.078125 -5.734375 C 6.035156 -5.734375 6.515625 -6.175781 6.515625 -7.0625 C 6.515625 -7.96875 6.035156 -8.421875 5.078125 -8.421875 L 3.28125 -8.421875 L 3.28125 -5.734375 Z M 5.078125 -5.734375 "/></g></g></g><g fill="#d9d9d9" fill-opacity="1"><g transform="translate(119.039346, 258.843132)"><g><path d="M 5.453125 0.140625 C 4.535156 0.140625 3.722656 -0.046875 3.015625 -0.421875 C 2.316406 -0.796875 1.769531 -1.363281 1.375 -2.125 C 0.976562 -2.894531 0.78125 -3.851562 0.78125 -5 C 0.78125 -6.144531 0.976562 -7.097656 1.375 -7.859375 C 1.769531 -8.628906 2.316406 -9.203125 3.015625 -9.578125 C 3.722656 -9.953125 4.535156 -10.140625 5.453125 -10.140625 C 6.367188 -10.140625 7.175781 -9.953125 7.875 -9.578125 C 8.570312 -9.210938 9.113281 -8.644531 9.5 -7.875 C 9.894531 -7.101562 10.09375 -6.144531 10.09375 -5 C 10.09375 -3.851562 9.894531 -2.894531 9.5 -2.125 C 9.113281 -1.351562 8.570312 -0.78125 7.875 -0.40625 C 7.175781 -0.0390625 6.367188 0.140625 5.453125 0.140625 Z M 5.453125 -1.578125 C 6.296875 -1.578125 6.941406 -1.847656 7.390625 -2.390625 C 7.835938 -2.929688 8.0625 -3.800781 8.0625 -5 C 8.0625 -6.1875 7.835938 -7.050781 7.390625 -7.59375 C 6.941406 -8.144531 6.296875 -8.421875 5.453125 -8.421875 C 4.597656 -8.421875 3.945312 -8.144531 3.5 -7.59375 C 3.050781 -7.050781 2.828125 -6.1875 2.828125 -5 C 2.828125 -3.800781 3.050781 -2.929688 3.5 -2.390625 C 3.945312 -1.847656 4.597656 -1.578125 5.453125 -1.578125 Z M 5.453125 -1.578125 "/></g></g></g><g fill="#d9d9d9" fill-opacity="1"><g transform="translate(131.46292, 258.843132)"><g><path d="M 4.765625 0 L 2.5625 0 L 0.28125 -10 L 2.25 -10 L 3.75 -2.96875 L 3.921875 -2.96875 L 5.71875 -10 L 7.40625 -10 L 9.234375 -2.96875 L 9.40625 -2.96875 L 10.921875 -10 L 12.8125 -10 L 10.53125 0 L 8.3125 0 L 6.5625 -6.453125 L 6.421875 -6.453125 Z M 4.765625 0 "/></g></g></g><g fill="#d9d9d9" fill-opacity="1"><g transform="translate(146.079604, 258.843132)"><g><path d="M 8.015625 -10 L 8.015625 -8.328125 L 5.125 -8.328125 L 5.125 0 L 3.15625 0 L 3.15625 -8.328125 L 0.28125 -8.328125 L 0.28125 -10 Z M 8.015625 -10 "/></g></g></g><g fill="#d9d9d9" fill-opacity="1"><g transform="translate(155.900139, 258.843132)"><g><path d="M 7.75 -6.234375 L 7.75 -10 L 9.71875 -10 L 9.71875 0 L 7.75 0 L 7.75 -4.546875 L 3.28125 -4.546875 L 3.28125 0 L 1.296875 0 L 1.296875 -10 L 3.28125 -10 L 3.28125 -6.234375 Z M 7.75 -6.234375 "/></g></g></g><g fill="#d9d9d9" fill-opacity="1"><g transform="translate(168.460355, 258.843132)"><g/></g></g><g fill="#d9d9d9" fill-opacity="1"><g transform="translate(173.300273, 258.843132)"><g><path d="M 5.46875 0.140625 C 4.539062 0.140625 3.722656 -0.046875 3.015625 -0.421875 C 2.316406 -0.804688 1.769531 -1.382812 1.375 -2.15625 C 0.976562 -2.925781 0.78125 -3.875 0.78125 -5 C 0.78125 -6.125 0.976562 -7.066406 1.375 -7.828125 C 1.769531 -8.597656 2.316406 -9.175781 3.015625 -9.5625 C 3.722656 -9.945312 4.539062 -10.140625 5.46875 -10.140625 C 6.425781 -10.140625 7.238281 -9.953125 7.90625 -9.578125 C 8.582031 -9.203125 9.066406 -8.628906 9.359375 -7.859375 L 7.90625 -6.96875 L 7.734375 -6.984375 C 7.523438 -7.503906 7.234375 -7.875 6.859375 -8.09375 C 6.492188 -8.320312 6.03125 -8.4375 5.46875 -8.4375 C 4.632812 -8.4375 3.984375 -8.160156 3.515625 -7.609375 C 3.054688 -7.054688 2.828125 -6.1875 2.828125 -5 C 2.828125 -3.8125 3.054688 -2.941406 3.515625 -2.390625 C 3.984375 -1.835938 4.632812 -1.5625 5.46875 -1.5625 C 6.757812 -1.5625 7.550781 -2.191406 7.84375 -3.453125 L 8.015625 -3.453125 L 9.46875 -2.703125 C 9.195312 -1.753906 8.726562 -1.039062 8.0625 -0.5625 C 7.40625 -0.09375 6.539062 0.140625 5.46875 0.140625 Z M 5.46875 0.140625 "/></g></g></g><g fill="#d9d9d9" fill-opacity="1"><g transform="translate(184.637539, 258.843132)"><g><path d="M 7.75 -6.234375 L 7.75 -10 L 9.71875 -10 L 9.71875 0 L 7.75 0 L 7.75 -4.546875 L 3.28125 -4.546875 L 3.28125 0 L 1.296875 0 L 1.296875 -10 L 3.28125 -10 L 3.28125 -6.234375 Z M 7.75 -6.234375 "/></g></g></g><g fill="#d9d9d9" fill-opacity="1"><g transform="translate(197.197761, 258.843132)"><g><path d="M 1.296875 0 L 1.296875 -10 L 5.3125 -10 C 6.34375 -10 7.117188 -9.757812 7.640625 -9.28125 C 8.171875 -8.800781 8.4375 -8.144531 8.4375 -7.3125 C 8.4375 -6.707031 8.28125 -6.207031 7.96875 -5.8125 C 7.664062 -5.425781 7.210938 -5.128906 6.609375 -4.921875 L 6.609375 -4.78125 C 6.921875 -4.644531 7.171875 -4.441406 7.359375 -4.171875 C 7.554688 -3.910156 7.742188 -3.515625 7.921875 -2.984375 L 8.921875 0 L 6.890625 0 L 5.90625 -2.984375 C 5.800781 -3.285156 5.6875 -3.519531 5.5625 -3.6875 C 5.4375 -3.851562 5.273438 -3.972656 5.078125 -4.046875 C 4.890625 -4.117188 4.640625 -4.15625 4.328125 -4.15625 L 3.28125 -4.15625 L 3.28125 0 Z M 5.078125 -5.734375 C 6.035156 -5.734375 6.515625 -6.175781 6.515625 -7.0625 C 6.515625 -7.96875 6.035156 -8.421875 5.078125 -8.421875 L 3.28125 -8.421875 L 3.28125 -5.734375 Z M 5.078125 -5.734375 "/></g></g></g><g fill="#d9d9d9" fill-opacity="1"><g transform="translate(208.077269, 258.843132)"><g><path d="M 5.453125 0.140625 C 4.535156 0.140625 3.722656 -0.046875 3.015625 -0.421875 C 2.316406 -0.796875 1.769531 -1.363281 1.375 -2.125 C 0.976562 -2.894531 0.78125 -3.851562 0.78125 -5 C 0.78125 -6.144531 0.976562 -7.097656 1.375 -7.859375 C 1.769531 -8.628906 2.316406 -9.203125 3.015625 -9.578125 C 3.722656 -9.953125 4.535156 -10.140625 5.453125 -10.140625 C 6.367188 -10.140625 7.175781 -9.953125 7.875 -9.578125 C 8.570312 -9.210938 9.113281 -8.644531 9.5 -7.875 C 9.894531 -7.101562 10.09375 -6.144531 10.09375 -5 C 10.09375 -3.851562 9.894531 -2.894531 9.5 -2.125 C 9.113281 -1.351562 8.570312 -0.78125 7.875 -0.40625 C 7.175781 -0.0390625 6.367188 0.140625 5.453125 0.140625 Z M 5.453125 -1.578125 C 6.296875 -1.578125 6.941406 -1.847656 7.390625 -2.390625 C 7.835938 -2.929688 8.0625 -3.800781 8.0625 -5 C 8.0625 -6.1875 7.835938 -7.050781 7.390625 -7.59375 C 6.941406 -8.144531 6.296875 -8.421875 5.453125 -8.421875 C 4.597656 -8.421875 3.945312 -8.144531 3.5 -7.59375 C 3.050781 -7.050781 2.828125 -6.1875 2.828125 -5 C 2.828125 -3.800781 3.050781 -2.929688 3.5 -2.390625 C 3.945312 -1.847656 4.597656 -1.578125 5.453125 -1.578125 Z M 5.453125 -1.578125 "/></g></g></g><g fill="#d9d9d9" fill-opacity="1"><g transform="translate(220.500837, 258.843132)"><g><path d="M 3.21875 0 L 1.296875 0 L 1.296875 -10 L 3.5625 -10 L 7.578125 -3.5625 L 7.75 -3.578125 L 7.75 -10 L 9.65625 -10 L 9.65625 0 L 7.625 0 L 3.390625 -6.875 L 3.21875 -6.84375 Z M 3.21875 0 "/></g></g></g><g fill="#d9d9d9" fill-opacity="1"><g transform="translate(232.992726, 258.843132)"><g><path d="M 3.28125 0 L 1.296875 0 L 1.296875 -10 L 3.28125 -10 Z M 3.28125 0 "/></g></g></g><g fill="#d9d9d9" fill-opacity="1"><g transform="translate(239.110257, 258.843132)"><g><path d="M 5.46875 0.140625 C 4.539062 0.140625 3.722656 -0.046875 3.015625 -0.421875 C 2.316406 -0.804688 1.769531 -1.382812 1.375 -2.15625 C 0.976562 -2.925781 0.78125 -3.875 0.78125 -5 C 0.78125 -6.125 0.976562 -7.066406 1.375 -7.828125 C 1.769531 -8.597656 2.316406 -9.175781 3.015625 -9.5625 C 3.722656 -9.945312 4.539062 -10.140625 5.46875 -10.140625 C 6.425781 -10.140625 7.238281 -9.953125 7.90625 -9.578125 C 8.582031 -9.203125 9.066406 -8.628906 9.359375 -7.859375 L 7.90625 -6.96875 L 7.734375 -6.984375 C 7.523438 -7.503906 7.234375 -7.875 6.859375 -8.09375 C 6.492188 -8.320312 6.03125 -8.4375 5.46875 -8.4375 C 4.632812 -8.4375 3.984375 -8.160156 3.515625 -7.609375 C 3.054688 -7.054688 2.828125 -6.1875 2.828125 -5 C 2.828125 -3.8125 3.054688 -2.941406 3.515625 -2.390625 C 3.984375 -1.835938 4.632812 -1.5625 5.46875 -1.5625 C 6.757812 -1.5625 7.550781 -2.191406 7.84375 -3.453125 L 8.015625 -3.453125 L 9.46875 -2.703125 C 9.195312 -1.753906 8.726562 -1.039062 8.0625 -0.5625 C 7.40625 -0.09375 6.539062 0.140625 5.46875 0.140625 Z M 5.46875 0.140625 "/></g></g></g><g fill="#d9d9d9" fill-opacity="1"><g transform="translate(250.447529, 258.843132)"><g><path d="M 3.28125 -10 L 3.28125 -1.65625 L 7.765625 -1.65625 L 7.765625 0 L 1.296875 0 L 1.296875 -10 Z M 3.28125 -10 "/></g></g></g><g fill="#d9d9d9" fill-opacity="1"><g transform="translate(260.07677, 258.843132)"><g><path d="M 3.28125 -4.390625 L 3.28125 -1.65625 L 8.046875 -1.65625 L 8.046875 0 L 1.296875 0 L 1.296875 -10 L 7.9375 -10 L 7.9375 -8.34375 L 3.28125 -8.34375 L 3.28125 -6 L 7.34375 -6 L 7.34375 -4.390625 Z M 3.28125 -4.390625 "/></g></g></g><g fill="#d9d9d9" fill-opacity="1"><g transform="translate(270.204745, 258.843132)"><g><path d="M 4.4375 0.140625 C 3.738281 0.140625 3.117188 0.0546875 2.578125 -0.109375 C 2.035156 -0.285156 1.582031 -0.507812 1.21875 -0.78125 C 0.863281 -1.0625 0.59375 -1.367188 0.40625 -1.703125 L 1.484375 -3.03125 L 1.65625 -3.03125 C 1.957031 -2.582031 2.335938 -2.222656 2.796875 -1.953125 C 3.265625 -1.691406 3.8125 -1.5625 4.4375 -1.5625 C 4.957031 -1.5625 5.351562 -1.671875 5.625 -1.890625 C 5.894531 -2.117188 6.03125 -2.429688 6.03125 -2.828125 C 6.03125 -3.054688 5.984375 -3.25 5.890625 -3.40625 C 5.804688 -3.570312 5.664062 -3.710938 5.46875 -3.828125 C 5.269531 -3.941406 5 -4.039062 4.65625 -4.125 L 3.375 -4.421875 C 2.476562 -4.617188 1.804688 -4.957031 1.359375 -5.4375 C 0.921875 -5.914062 0.703125 -6.535156 0.703125 -7.296875 C 0.703125 -7.859375 0.84375 -8.351562 1.125 -8.78125 C 1.40625 -9.207031 1.816406 -9.539062 2.359375 -9.78125 C 2.898438 -10.019531 3.546875 -10.140625 4.296875 -10.140625 C 5.066406 -10.140625 5.726562 -10.035156 6.28125 -9.828125 C 6.832031 -9.628906 7.296875 -9.320312 7.671875 -8.90625 L 6.6875 -7.5625 L 6.515625 -7.5625 C 6.234375 -7.851562 5.910156 -8.070312 5.546875 -8.21875 C 5.179688 -8.375 4.765625 -8.453125 4.296875 -8.453125 C 3.753906 -8.453125 3.34375 -8.351562 3.0625 -8.15625 C 2.78125 -7.96875 2.640625 -7.707031 2.640625 -7.375 C 2.640625 -7.050781 2.738281 -6.796875 2.9375 -6.609375 C 3.132812 -6.429688 3.476562 -6.289062 3.96875 -6.1875 L 5.28125 -5.90625 C 6.25 -5.695312 6.953125 -5.347656 7.390625 -4.859375 C 7.828125 -4.367188 8.046875 -3.734375 8.046875 -2.953125 C 8.046875 -2.328125 7.910156 -1.78125 7.640625 -1.3125 C 7.367188 -0.851562 6.960938 -0.492188 6.421875 -0.234375 C 5.878906 0.015625 5.21875 0.140625 4.4375 0.140625 Z M 4.4375 0.140625 "/></g></g></g></svg>